<svg width="25" height="24" viewBox="0 0 25 24" fill="none" xmlns="http://www.w3.org/2000/svg">
<g clip-path="url(#clip0_54_147)">
<path d="M12.0435 21C17.014 21 21.0435 16.9706 21.0435 12C21.0435 7.02944 17.014 3 12.0435 3C7.07289 3 3.04346 7.02944 3.04346 12C3.04346 16.9706 7.07289 21 12.0435 21Z" stroke="#7C8493" stroke-width="2" stroke-linecap="round" stroke-linejoin="round"/>
<path d="M12.0435 17V17.01" stroke="#7C8493" stroke-width="2" stroke-linecap="round" stroke-linejoin="round"/>
<path d="M12.0435 13.5C12.025 13.1754 12.1126 12.8535 12.293 12.583C12.4733 12.3125 12.7367 12.1078 13.0435 12C13.4193 11.8562 13.7567 11.6272 14.029 11.3309C14.3013 11.0347 14.5012 10.6792 14.6128 10.2926C14.7244 9.90594 14.7447 9.49868 14.6722 9.10285C14.5996 8.70702 14.4362 8.33343 14.1948 8.0115C13.9533 7.68956 13.6404 7.42807 13.2808 7.2476C12.9211 7.06713 12.5244 6.97262 12.122 6.97151C11.7196 6.97039 11.3224 7.0627 10.9617 7.24117C10.601 7.41964 10.2867 7.67939 10.0435 7.99998" stroke="#7C8493" stroke-width="2" stroke-linecap="round" stroke-linejoin="round"/>
</g>
<defs>
<clipPath id="clip0_54_147">
<rect width="24" height="24" fill="white" transform="translate(0.043457)"/>
</clipPath>
</defs>
</svg>
