<svg width="24" height="25" viewBox="0 0 24 25" fill="none" xmlns="http://www.w3.org/2000/svg">
    <path fill-rule="evenodd" clip-rule="evenodd" d="M10.483 20.2365C11.001 20.8144 11.666 21.132 12.356 21.132H12.357C13.05 21.132 13.718 20.8144 14.237 20.2355C14.515 19.928 14.989 19.9029 15.296 20.1804C15.604 20.4579 15.629 20.9336 15.352 21.2411C14.544 22.1396 13.481 22.6344 12.357 22.6344H12.355C11.234 22.6334 10.173 22.1386 9.36798 21.2401C9.09098 20.9326 9.11598 20.4569 9.42398 20.1804C9.73198 19.9019 10.206 19.927 10.483 20.2365ZM12.4058 1.09912C16.8508 1.09912 19.8368 4.56681 19.8368 7.80511C19.8368 9.47084 20.2598 10.177 20.7088 10.9262C21.1528 11.6654 21.6558 12.5048 21.6558 14.0914C21.3068 18.1451 17.0818 18.4756 12.4058 18.4756C7.72978 18.4756 3.50378 18.1451 3.15877 14.1555C3.15578 12.5048 3.65878 11.6654 4.10278 10.9262L4.25952 10.662C4.64545 9.99757 4.97478 9.27488 4.97478 7.80511C4.97478 4.56681 7.96078 1.09912 12.4058 1.09912ZM12.4058 2.60158C8.91078 2.60158 6.47478 5.34408 6.47478 7.80511C6.47478 9.88753 5.89778 10.8501 5.38778 11.6995C4.97878 12.3816 4.65578 12.9205 4.65578 14.0914C4.82278 15.9805 6.06778 16.9731 12.4058 16.9731C18.7088 16.9731 19.9928 15.9364 20.1588 14.0263C20.1558 12.9205 19.8328 12.3816 19.4238 11.6995C18.9138 10.8501 18.3368 9.88753 18.3368 7.80511C18.3368 5.34408 15.9008 2.60158 12.4058 2.60158Z" fill="#25324B"/>
    <path d="M18 9.58041C19.9338 9.58041 21.5 8.01043 21.5 6.07548C21.5 4.14054 19.9338 2.57056 18 2.57056C16.0662 2.57056 14.5 4.14054 14.5 6.07548C14.5 8.01043 16.0662 9.58041 18 9.58041Z" fill="#FF6550" stroke="white"/>
</svg>
