<svg width="25" height="24" viewBox="0 0 25 24" fill="none" xmlns="http://www.w3.org/2000/svg">
<path d="M10.3685 4.317C10.7945 2.561 13.2925 2.561 13.7185 4.317C13.7824 4.5808 13.9077 4.82578 14.0842 5.032C14.2607 5.23822 14.4833 5.39985 14.7341 5.50375C14.9849 5.60764 15.2566 5.65085 15.5272 5.62987C15.7979 5.60889 16.0597 5.5243 16.2915 5.383C17.8345 4.443 19.6015 6.209 18.6615 7.753C18.5204 7.98466 18.4359 8.24634 18.415 8.51677C18.394 8.78721 18.4372 9.05877 18.541 9.30938C18.6448 9.55999 18.8062 9.78258 19.0122 9.95905C19.2182 10.1355 19.4629 10.2609 19.7265 10.325C21.4825 10.751 21.4825 13.249 19.7265 13.675C19.4627 13.7389 19.2177 13.8642 19.0115 14.0407C18.8052 14.2172 18.6436 14.4399 18.5397 14.6907C18.4358 14.9414 18.3926 15.2132 18.4136 15.4838C18.4346 15.7544 18.5192 16.0162 18.6605 16.248C19.6005 17.791 17.8345 19.558 16.2905 18.618C16.0588 18.4769 15.7971 18.3924 15.5267 18.3715C15.2562 18.3506 14.9847 18.3938 14.7341 18.4975C14.4835 18.6013 14.2609 18.7627 14.0844 18.9687C13.9079 19.1747 13.7826 19.4194 13.7185 19.683C13.2925 21.439 10.7945 21.439 10.3685 19.683C10.3045 19.4192 10.1792 19.1742 10.0027 18.968C9.82626 18.7618 9.60357 18.6001 9.35281 18.4963C9.10204 18.3924 8.83029 18.3491 8.55967 18.3701C8.28905 18.3911 8.02721 18.4757 7.79546 18.617C6.25246 19.557 4.48546 17.791 5.42546 16.247C5.56656 16.0153 5.65101 15.7537 5.67194 15.4832C5.69287 15.2128 5.6497 14.9412 5.54593 14.6906C5.44216 14.44 5.28072 14.2174 5.07473 14.0409C4.86874 13.8645 4.62402 13.7391 4.36046 13.675C2.60446 13.249 2.60446 10.751 4.36046 10.325C4.62426 10.2611 4.86924 10.1358 5.07546 9.95929C5.28168 9.7828 5.44331 9.56011 5.5472 9.30935C5.65109 9.05859 5.69431 8.78683 5.67333 8.51621C5.65234 8.24559 5.56776 7.98375 5.42646 7.752C4.48646 6.209 6.25246 4.442 7.79646 5.382C8.79246 5.99 10.0925 5.452 10.3685 4.317Z" stroke="#7C8493" stroke-width="2" stroke-linecap="round" stroke-linejoin="round"/>
<path d="M15.0435 12C15.0435 12.7956 14.7274 13.5587 14.1648 14.1213C13.6022 14.6839 12.8391 15 12.0435 15C11.2478 15 10.4847 14.6839 9.92214 14.1213C9.35953 13.5587 9.04346 12.7956 9.04346 12C9.04346 11.2044 9.35953 10.4413 9.92214 9.87868C10.4847 9.31607 11.2478 9 12.0435 9C12.8391 9 13.6022 9.31607 14.1648 9.87868C14.7274 10.4413 15.0435 11.2044 15.0435 12V12Z" stroke="#7C8493" stroke-width="2" stroke-linecap="round" stroke-linejoin="round"/>
</svg>
